<?xml version="1.0" encoding="UTF-8" standalone="no"?>
<!DOCTYPE svg PUBLIC "-//W3C//DTD SVG 1.1//EN" "http://www.w3.org/Graphics/SVG/1.1/DTD/svg11.dtd">
<svg width="100%" height="100%" viewBox="0 0 2480 2500" version="1.1" xmlns="http://www.w3.org/2000/svg" xmlns:xlink="http://www.w3.org/1999/xlink" xml:space="preserve" xmlns:serif="http://www.serif.com/" style="fill-rule:evenodd;clip-rule:evenodd;stroke-linecap:round;stroke-linejoin:round;stroke-miterlimit:1.5;">
    <rect x="0" y="0" width="2480" height="2500" style="fill:white;"/>
    <g transform="matrix(1,0,0,1,-11879.4,-53539.8)">
        <g id="InspirED-favicon" serif:id="InspirED favicon" transform="matrix(0.416199,0,0,0.419524,-16622.5,53539.8)">
            <rect x="68481.3" y="0" width="5958.33" height="5958.33" style="fill:none;"/>
            <clipPath id="_clip1">
                <rect x="68481.3" y="0" width="5958.33" height="5958.33"/>
            </clipPath>
            <g clip-path="url(#_clip1)">
                <g transform="matrix(0.659759,0,0,0.654531,67281.6,2979.17)">
                    <g transform="matrix(1,0,0,1,-12414.6,-5208.33)">
                        <clipPath id="_clip2">
                            <rect x="0" y="0" width="24829.2" height="10416.7"/>
                        </clipPath>
                        <g clip-path="url(#_clip2)">
                            <g id="InspirED-Logo" serif:id="InspirED Logo" transform="matrix(4.16667,0,0,1.74802,-285339,0)">
                                <g>
                                    <rect x="68481.3" y="0" width="5958.33" height="5958.33" style="fill:none;"/>
                                    <g transform="matrix(0.50478,0,0,1.20322,68768.3,0.01)">
                                        <g>
                                            <path d="M7297.01,1711.17L9528.21,1321.24L9102.32,4369.99L8396.99,4470.02L6915.19,3659.22L7139.68,2851.07L7297.01,1711.17Z" style="fill:none;stroke:rgb(115,115,115);stroke-width:18.75px;"/>
                                            <path d="M7655.58,4369.99L9659.07,3677.08L7920.05,676.184L10116.6,2747.86L7655.58,4369.99L6915.19,2294.87L7920.05,676.184" style="fill:none;stroke:rgb(115,115,115);stroke-width:18.75px;"/>
                                            <g id="ACTUAL-APPLE" serif:id="ACTUAL APPLE">
                                                <path d="M7733.33,461.334C8040.81,586.832 8327.43,754.506 8595.44,959.825L8802.18,1193.28L8853.11,1321.7L8865.42,1420.29L8822.02,1707.01L9000.2,1464.81L9088.28,1383.79L9166.4,1328.6L9238.01,1281.03L9421.69,1223.26L9444.19,1242.55L9497.42,1245.32C9564.09,1276.68 9589.46,1321.62 9591.45,1374.23L9496.73,1426.45L9390.93,1454.08L9174.63,1469.09L9078.8,1520.06L8842.05,1813.72L9396.22,1924.1L9480.12,1958.88L9677.61,2077.71L9838.23,2189.53L9993.89,2364.15C10116.3,2518.77 10141.7,2692.59 10094,2880.88L10079.5,2985.15L9889.48,3413.01L9681.5,3745.17L9411.7,4087.15L9094.4,4373.84C9024.59,4424.2 8940.49,4463.59 8845.32,4494.46L8597.85,4547.54L8236.4,4546.47C8047.5,4513.8 7873.09,4476.7 7729.98,4430.03C7617.13,4399.82 7509.03,4348.39 7404.98,4278.88L7124.21,4026.93C7065.34,3969.39 7010.29,3887.95 6960.02,3776.66L6913.26,3593.94L6851.25,3066.7C6828.69,2798.76 6856.47,2554.03 6914.55,2323.27C6985.12,2067.03 7107.4,1862.53 7280.71,1709.11L7557.57,1528.49C7615.53,1487.73 7945.95,1420.35 8081.2,1426.16C8087.37,1426.43 8117.83,1259.89 8060.41,1010.89C8006.61,777.635 7725.89,472.623 7733.33,461.334ZM7919.03,605.298C7930.88,663.854 7963.24,714.475 8013.49,758.171L8174.52,1105.52L8199.18,1393.64L8214.2,1513.76L8584.67,2055.11L8556.15,1810.84L8508.06,1625.6L8457.39,1501.39L8326.79,1372.57L8261.47,1302.53L8389.47,1353.74L8520.69,1459.6L8640.76,1369.5L8694.09,1360.25L8622.52,1697.88L8681.79,2045.62L8731.19,1905.85L8791.46,1441.82L8766.42,1273.73C8603.25,1028.19 8321.16,805.31 7919.03,605.298ZM8104.28,1581.37L7949.14,1554.31L7778.63,1557.85L7462.24,1686.78L7147.5,2024.65C7055.07,2329.06 6992.9,2678.86 6938.67,3040.57L6978.66,3475.91L7082.13,3788.13L7267.75,4024L7445.94,4178.36L7812.66,4333.43L8821.58,4396.72L9085.13,4268.29C9345.44,4065.54 9605.8,3710.19 9866.19,3267.8L9928.8,3123.43L9961.36,2526.38C9881.1,2343.42 9676.5,2174.32 9384.62,2014.95L8964.52,1952.45L8759.59,2044.84L8816.09,2064.49C8901.74,2089.36 8976.76,2095.73 9047.3,2094.29L8988.23,2142.27L8679.22,2204.99L8595.03,2217.72L8465.82,2201.13L8275.4,2126.55L8184.8,2060.76L8149.43,2013.8C8191.81,2034.38 8234.92,2029.35 8281.21,2023.9C8338.6,2060.89 8395.98,2065.31 8453.37,2056.94C8330.69,1931.22 8211.67,1786.52 8104.28,1581.37Z" style="fill:rgb(214,31,53);"/>
                                            </g>
                                            <g transform="matrix(5.55556,0,0,5.55556,7061.11,1455.56)">
                                                <g>
                                                    <g transform="matrix(1,0,0,1,0.69665,415.077)">
                                                        <g>
                                                            <g>
                                                                <path d="M8.797,0L8.797,-4L18,-7.594C22.531,-9.469 25.66,-11.938 27.391,-15C29.129,-18.063 30,-22.258 30,-27.594L30,-236.406C30,-241.738 29.266,-245.938 27.797,-249C26.328,-252.063 23.063,-254.531 18,-256.406L8.797,-260L8.797,-264L200.406,-264L202.797,-202.406L198.797,-202.406L181.594,-240C179.195,-244.801 176.664,-248.664 174,-251.594C171.332,-254.531 167.332,-256 162,-256L90,-256L90,-140.406L132.797,-140.406C138.129,-140.406 142.195,-141.801 145,-144.594C147.801,-147.395 150.27,-151.195 152.406,-156L160.406,-172L164.406,-172L164.406,-100L160.406,-100L152.406,-116.797C150,-121.598 147.461,-125.398 144.797,-128.203C142.129,-131.004 138.129,-132.406 132.797,-132.406L90,-132.406L90,-8L170.797,-8C176.129,-8 180.258,-9.398 183.188,-12.203C186.125,-15.004 188.531,-18.938 190.406,-24L206.797,-61.594L210.797,-61.594L208.406,0L8.797,0Z" style="fill-rule:nonzero;"/>
                                                            </g>
                                                        </g>
                                                    </g>
                                                    <g transform="matrix(1,0,0,1,220.295,415.077)">
                                                        <g>
                                                            <g>
                                                                <path d="M92.797,6C77.066,6 62.93,2.469 50.391,-4.594C37.859,-11.664 27.926,-22.598 20.594,-37.391C13.258,-52.191 9.594,-71.195 9.594,-94.406C9.594,-117.863 13.727,-137.258 22,-152.594C30.27,-167.926 41.203,-179.395 54.797,-187C68.398,-194.602 83.203,-198.406 99.203,-198.406C108.535,-198.406 117.469,-197.469 126,-195.594C134.531,-193.727 142.129,-190.93 148.797,-187.203L148.797,-239.203C148.797,-244.797 147.926,-248.926 146.188,-251.594C144.457,-254.258 140.797,-256.129 135.203,-257.203L127.594,-258.797L127.594,-262.797L200.406,-280.406L204.797,-276.797L203.203,-220.797L203.203,-25.203C203.203,-19.867 204.133,-15.535 206,-12.203C207.863,-8.867 211.332,-6.535 216.406,-5.203L220,-4L220,0L151.594,4.406L148,-10C140.801,-5.195 132.598,-1.332 123.391,1.594C114.191,4.531 103.992,6 92.797,6ZM116,-8.797C127.195,-8.797 137.461,-12.129 146.797,-18.797L146.797,-177.594C136.93,-184 126.801,-187.203 116.406,-187.203C103.602,-187.203 92.664,-179.801 83.594,-165C74.531,-150.195 70,-126.93 70,-95.203C70,-63.461 74.266,-41.125 82.797,-28.188C91.328,-15.258 102.395,-8.797 116,-8.797Z" style="fill-rule:nonzero;"/>
                                                            </g>
                                                        </g>
                                                    </g>
                                                </g>
                                            </g>
                                        </g>
                                    </g>
                                </g>
                            </g>
                        </g>
                    </g>
                </g>
            </g>
        </g>
    </g>
</svg>
