<?xml version="1.0" encoding="UTF-8" standalone="no"?>
<!DOCTYPE svg PUBLIC "-//W3C//DTD SVG 1.1//EN" "http://www.w3.org/Graphics/SVG/1.1/DTD/svg11.dtd">
<svg width="100%" height="100%" viewBox="0 0 5959 2500" version="1.1" xmlns="http://www.w3.org/2000/svg" xmlns:xlink="http://www.w3.org/1999/xlink" xml:space="preserve" xmlns:serif="http://www.serif.com/" style="fill-rule:evenodd;clip-rule:evenodd;stroke-linecap:round;stroke-linejoin:round;stroke-miterlimit:1.5;">
    <g transform="matrix(1,0,0,1,-11742.2,-52025.5)">
        <g id="InspirED-Logo" serif:id="InspirED Logo" transform="matrix(1,0,0,0.419524,-56739.2,52025.5)">
            <rect x="68481.3" y="0" width="5958.33" height="5958.33" style="fill:none;"/>
            <g transform="matrix(0.50478,0,0,1.20322,71460.5,3609.67)">
                <g transform="matrix(1,0,0,1,-5333.33,-3000)">
                    <path d="M7297.01,1711.17L9528.21,1321.24L9102.32,4369.99L8396.99,4470.02L6915.19,3659.22L7139.68,2851.07L7297.01,1711.17Z" style="fill:none;stroke:rgb(115,115,115);stroke-width:18.75px;"/>
                    <path d="M7655.58,4369.99L9659.07,3677.08L7920.05,676.184L10116.6,2747.86L7655.58,4369.99L6915.19,2294.87L7920.05,676.184" style="fill:none;stroke:rgb(115,115,115);stroke-width:18.75px;"/>
                    <g id="ACTUAL-APPLE" serif:id="ACTUAL APPLE">
                        <path d="M7733.33,461.334C8040.81,586.832 8327.43,754.506 8595.44,959.825L8802.18,1193.28L8853.11,1321.7L8865.42,1420.29L8822.02,1707.01L9000.2,1464.81L9088.28,1383.79L9166.4,1328.6L9238.01,1281.03L9421.69,1223.26L9444.19,1242.55L9497.42,1245.32C9564.09,1276.68 9589.46,1321.62 9591.45,1374.23L9496.73,1426.45L9390.93,1454.08L9174.63,1469.09L9078.8,1520.06L8842.05,1813.72L9396.22,1924.1L9480.12,1958.88L9677.61,2077.71L9838.23,2189.53L9993.89,2364.15C10116.3,2518.77 10141.7,2692.59 10094,2880.88L10079.5,2985.15L9889.48,3413.01L9681.5,3745.17L9411.7,4087.15L9094.4,4373.84C9024.59,4424.2 8940.49,4463.59 8845.32,4494.46L8597.85,4547.54L8236.4,4546.47C8047.5,4513.8 7873.09,4476.7 7729.98,4430.03C7617.13,4399.82 7509.03,4348.39 7404.98,4278.88L7124.21,4026.93C7065.34,3969.39 7010.29,3887.95 6960.02,3776.66L6913.26,3593.94L6851.25,3066.7C6828.69,2798.76 6856.47,2554.03 6914.55,2323.27C6985.12,2067.03 7107.4,1862.53 7280.71,1709.11L7557.57,1528.49C7615.53,1487.73 7945.95,1420.35 8081.2,1426.16C8087.37,1426.43 8117.83,1259.89 8060.41,1010.89C8006.61,777.635 7725.89,472.623 7733.33,461.334ZM7919.03,605.298C7930.88,663.854 7963.24,714.475 8013.49,758.171L8174.52,1105.52L8199.18,1393.64L8214.2,1513.76L8584.67,2055.11L8556.15,1810.84L8508.06,1625.6L8457.39,1501.39L8326.79,1372.57L8261.47,1302.53L8389.47,1353.74L8520.69,1459.6L8640.76,1369.5L8694.09,1360.25L8622.52,1697.88L8681.79,2045.62L8731.19,1905.85L8791.46,1441.82L8766.42,1273.73C8603.25,1028.19 8321.16,805.31 7919.03,605.298ZM8104.28,1581.37L7949.14,1554.31L7778.63,1557.85L7462.24,1686.78L7147.5,2024.65C7055.07,2329.06 6992.9,2678.86 6938.67,3040.57L6978.66,3475.91L7082.13,3788.13L7267.75,4024L7445.94,4178.36L7812.66,4333.43L8821.58,4396.72L9085.13,4268.29C9345.44,4065.54 9605.8,3710.19 9866.19,3267.8L9928.8,3123.43L9961.36,2526.38C9881.1,2343.42 9676.5,2174.32 9384.62,2014.95L8964.52,1952.45L8759.59,2044.84L8816.09,2064.49C8901.74,2089.36 8976.76,2095.73 9047.3,2094.29L8988.23,2142.27L8679.22,2204.99L8595.03,2217.72L8465.82,2201.13L8275.4,2126.55L8184.8,2060.76L8149.43,2013.8C8191.81,2034.38 8234.92,2029.35 8281.21,2023.9C8338.6,2060.89 8395.98,2065.31 8453.37,2056.94C8330.69,1931.22 8211.67,1786.52 8104.28,1581.37Z" style="fill:rgb(214,31,53);"/>
                    </g>
                    <g transform="matrix(5.55556,0,0,5.55556,2616.67,1705.56)">
                        <g>
                            <g transform="matrix(1,0,0,1,21.8474,371.641)">
                                <g>
                                    <g>
                                        <path d="M115.016,0.906C106.898,0.906 101.188,-1.422 97.875,-6.078C94.57,-10.742 92.922,-16.535 92.922,-23.453C92.922,-40.891 98.93,-59.535 110.953,-79.391L139.828,-126.297C119.379,-111.254 99.082,-92.457 78.938,-69.906C73.52,-63.895 67.426,-56.828 60.656,-48.703C53.895,-40.586 46.457,-31.27 38.344,-20.75C27.508,-6.613 21.039,0.453 18.938,0.453C14.727,0.453 11.27,-1.426 8.563,-5.188C5.863,-8.945 4.516,-12.328 4.516,-15.328C4.516,-17.734 5.266,-22.172 6.766,-28.641C8.266,-35.109 10.066,-40.75 12.172,-45.563C14.273,-50.664 16.453,-55.695 18.703,-60.656C20.961,-65.625 28.95,-78.829 31.067,-83.642C31.067,-83.642 10.676,-71.867 15.781,-78.484C18.488,-81.785 22.547,-86.816 27.953,-93.578C33.367,-100.348 39.313,-107.641 45.781,-115.453C52.25,-123.273 42.674,-149.628 41.661,-151.299C38.807,-156.01 83.423,-140.541 84.797,-133.063C85.123,-131.288 84.344,-129.453 83.438,-127.641C56.375,-90.359 40.141,-61.941 34.734,-42.391C69.609,-77.273 97.645,-103.516 118.844,-121.109C140.051,-138.703 155.164,-147.5 164.188,-147.5C168.988,-147.5 172.664,-146.742 175.219,-145.234C177.781,-143.734 179.063,-140.879 179.063,-136.672C179.063,-135.16 178.91,-133.957 178.609,-133.063C177.711,-130.957 171.551,-122.535 160.125,-107.797C153.207,-99.379 147.117,-91.711 141.859,-84.797C136.598,-77.879 132.313,-71.863 129,-66.75C123.582,-58.332 119.52,-50.441 116.813,-43.078C114.113,-35.711 112.766,-29.473 112.766,-24.359C112.766,-22.254 113.063,-19.695 113.656,-16.688C114.258,-13.676 116.066,-12.172 119.078,-12.172C125.992,-12.172 136.816,-18.188 151.547,-30.219C158.461,-36.227 164.926,-42.316 170.938,-48.484C176.957,-54.648 182.676,-60.738 188.094,-66.75C189.289,-67.957 191.242,-70.289 193.953,-73.75C196.66,-77.207 198.313,-78.938 198.906,-78.938C200.113,-78.938 200.719,-77.734 200.719,-75.328C200.719,-74.117 200.039,-72.086 198.688,-69.234C197.332,-66.379 195.906,-64.203 194.406,-62.703C191.094,-58.785 186.203,-53.367 179.734,-46.453C173.273,-39.535 166.063,-32.469 158.094,-25.25C150.125,-18.039 142.379,-11.879 134.859,-6.766C127.348,-1.648 120.734,0.906 115.016,0.906Z" style="fill:rgb(214,31,53);fill-rule:nonzero;"/>
                                    </g>
                                </g>
                            </g>
                            <g transform="matrix(1,0,0,1,203.619,371.641)">
                                <g>
                                    <g>
                                        <path d="M51.875,0.906C37.738,0.906 27.285,-3.754 20.516,-13.078C13.754,-22.398 8.27,-35.332 4.063,-51.875C-1.352,-46.457 -5.113,-43.75 -7.219,-43.75C-8.719,-43.75 -9.469,-44.953 -9.469,-47.359C-9.469,-49.16 -8.719,-50.816 -7.219,-52.328C-7.219,-52.328 -3.383,-56.984 4.281,-66.297C11.945,-75.617 24.953,-88.703 43.297,-105.547L100.125,-158.766C107.945,-166.285 114.188,-172 118.844,-175.906C123.508,-179.813 126.895,-181.766 129,-181.766C138.625,-181.766 143.438,-178.16 143.438,-170.953C143.438,-167.336 141.477,-163.125 137.563,-158.313C134.563,-154.707 132.383,-151.926 131.031,-149.969C129.676,-148.02 128.848,-146.895 128.547,-146.594C123.129,-137.27 118.164,-120.582 113.656,-96.531C110.352,-78.781 107.5,-64.191 105.094,-52.766C102.688,-41.336 100.734,-33.07 99.234,-27.969C111.859,-28.27 124.332,-32.176 136.656,-39.688C148.988,-47.207 162.223,-59.535 176.359,-76.672C176.961,-77.273 177.863,-78.176 179.063,-79.375C180.27,-80.582 181.473,-81.188 182.672,-81.188C184.473,-81.188 185.375,-80.438 185.375,-78.938C185.375,-77.426 184.922,-75.922 184.016,-74.422C183.117,-72.922 182.223,-71.566 181.328,-70.359C172.004,-59.234 163.281,-50.133 155.156,-43.063C147.039,-36 138.473,-30.438 129.453,-26.375C120.43,-22.32 109.754,-18.941 97.422,-16.234L83,-6.766C79.082,-4.055 74.414,-2.098 69,-0.891C63.594,0.305 57.883,0.906 51.875,0.906ZM57.281,-22.094C64.195,-22.094 69.91,-23.75 74.422,-27.063C77.734,-28.863 80.969,-33.898 84.125,-42.172C87.281,-50.441 90.359,-60.738 93.359,-73.063C95.766,-83.594 97.645,-93.895 99,-103.969C100.352,-114.039 101.633,-123.738 102.844,-133.063L104.641,-148.391C97.723,-143.285 89.004,-135.922 78.484,-126.297C67.961,-116.672 57.586,-106.598 47.359,-96.078C37.141,-85.547 30.523,-77.801 27.516,-72.844C24.504,-67.883 22.848,-64.203 22.547,-61.797C21.348,-49.766 24.281,-40.141 31.344,-32.922C38.414,-25.703 47.063,-22.094 57.281,-22.094Z" style="fill:rgb(214,31,53);fill-rule:nonzero;"/>
                                    </g>
                                </g>
                            </g>
                            <g transform="matrix(1,0,0,1,365.545,371.641)">
                                <g>
                                    <g>
                                        <path d="M-29.09,82.316C-41.723,75.398 -45.109,65.25 -45.109,46C-45.109,25.258 -28.117,-10.219 5.859,-60.438C38.336,-108.852 60.891,-135.016 73.516,-138.922C74.723,-139.223 75.773,-139.445 76.672,-139.594C77.578,-139.75 78.484,-139.828 79.391,-139.828C84.492,-139.828 87.047,-134.266 87.047,-123.141C89.148,-125.242 92.832,-127.27 98.094,-129.219C103.363,-131.176 108.781,-132.754 114.344,-133.953C119.906,-135.16 124.039,-135.914 126.75,-136.219C139.07,-136.82 149.367,-133.891 157.641,-127.422C165.91,-120.953 170.047,-112.457 170.047,-101.938C170.047,-77.582 155.461,-53.977 126.297,-31.125C99.828,-10.375 76.375,0 55.938,0C42.395,0 33.07,-0.75 27.969,-2.25C20.75,-4.352 13.379,-9.914 5.859,-18.938C2.555,-16.238 -1.047,-11.656 -4.953,-5.188C-8.867,1.281 -12.555,8.348 -16.016,16.016C-19.473,23.68 -22.328,31.27 -24.578,38.781C-26.836,46.301 -27.969,52.617 -27.969,57.734C-27.969,62.848 -26.988,67.133 -25.031,70.594C-23.07,74.051 -24.125,74.347 -22.325,77.347C-22.325,77.648 -22.247,77.871 -22.09,78.019C-21.942,78.175 -21.872,78.253 -21.872,78.253C-21.872,79.753 -22.7,81.027 -24.356,82.082C-26.012,83.132 -27.59,83.21 -29.09,82.316ZM50.063,-12.625C66.906,-12.625 86.301,-21.195 108.25,-38.344C134.113,-58.789 147.047,-81.492 147.047,-106.453C147.047,-117.879 139.977,-123.594 125.844,-123.594C112.914,-123.594 100.891,-120.734 89.766,-115.016C86.754,-113.816 81.863,-109.906 75.094,-103.281C68.332,-96.664 59.391,-87.648 48.266,-76.234C24.504,-51.566 12.625,-35.773 12.625,-28.859C12.625,-23.453 17.586,-19.094 27.516,-15.781C34.129,-13.676 41.645,-12.625 50.063,-12.625Z" style="fill:rgb(214,31,53);fill-rule:nonzero;"/>
                                    </g>
                                </g>
                            </g>
                            <g transform="matrix(1,0,0,1,535.589,371.641)">
                                <g>
                                    <g>
                                        <path d="M99.688,-155.156C94.57,-155.156 90.133,-156.805 86.375,-160.109C82.613,-163.422 80.734,-167.18 80.734,-171.391C80.734,-179.816 86.445,-184.031 97.875,-184.031C102.082,-184.031 106.289,-182.598 110.5,-179.734C114.719,-176.879 116.828,-173.348 116.828,-169.141C116.828,-165.535 114.867,-162.301 110.953,-159.438C107.047,-156.582 103.289,-155.156 99.688,-155.156ZM16.234,4.969C9.617,4.969 4.133,2.785 -0.219,-1.578C-4.582,-5.941 -6.766,-13.688 -6.766,-24.813C-6.766,-31.125 -5.336,-38.414 -2.484,-46.688C0.367,-54.957 3.977,-63.301 8.344,-71.719C12.707,-80.133 16.992,-87.648 21.203,-94.266C38.035,-121.629 51.867,-135.461 62.703,-135.766C65.398,-135.766 68.703,-134.633 72.609,-132.375C76.523,-130.125 78.484,-127.645 78.484,-124.938C78.484,-124.938 67.055,-110.203 44.203,-80.734C21.648,-51.566 10.375,-30.82 10.375,-18.5C10.375,-8.875 14.133,-4.063 21.656,-4.063C26.457,-4.063 32.691,-6.086 40.359,-10.141C48.035,-14.203 56.082,-19.391 64.5,-25.703C72.914,-32.023 80.957,-38.789 88.625,-46C96.289,-53.219 102.531,-59.836 107.344,-65.859C110.352,-69.766 112.984,-72.469 115.234,-73.969C117.492,-75.477 118.926,-76.234 119.531,-76.234C120.727,-76.234 121.328,-75.328 121.328,-73.516C121.328,-72.016 119.598,-69.008 116.141,-64.5C112.68,-59.988 107.945,-54.727 101.938,-48.719C94.719,-41.5 86.75,-33.676 78.031,-25.25C69.313,-16.832 59.836,-9.691 49.609,-3.828C39.391,2.035 28.266,4.969 16.234,4.969Z" style="fill:rgb(214,31,53);fill-rule:nonzero;"/>
                                    </g>
                                </g>
                            </g>
                            <g transform="matrix(1,0,0,1,637.525,371.641)">
                                <g>
                                    <g>
                                        <path d="M92.016,2.25C79.086,2.25 70.219,-1.129 65.406,-7.891C60.594,-14.66 58.188,-23.758 58.188,-35.188C58.188,-47.813 62.094,-62.844 69.906,-80.281C72.914,-87.195 76.07,-93.438 79.375,-99C82.688,-104.563 86.148,-109.75 89.766,-114.563C88.555,-114.258 87.5,-114.109 86.594,-114.109L83.891,-114.109C76.672,-114.109 70.66,-119.223 65.859,-129.453L32.469,-86.156C14.727,-63 3.906,-51.422 0,-51.422C-1.5,-51.422 -2.25,-52.02 -2.25,-53.219C-2.25,-54.727 -1.5,-56.688 0,-59.094C0.906,-60.895 2.707,-63.297 5.406,-66.297C16.832,-79.535 27.359,-92.617 36.984,-105.547C46.609,-118.473 54.578,-131.102 60.891,-143.438C67.805,-169.594 76.523,-182.672 87.047,-182.672C93.961,-182.672 97.422,-179.516 97.422,-173.203C97.422,-167.484 93.664,-159.969 86.156,-150.656C78.938,-141.332 75.328,-136.52 75.328,-136.219C75.328,-129.906 79.988,-126.75 89.313,-126.75C94.719,-126.75 100.727,-128.703 107.344,-132.609L119.078,-139.828C119.68,-140.129 120.582,-140.281 121.781,-140.281C125.383,-140.281 128.539,-138.773 131.25,-135.766C133.957,-132.754 134.863,-130.047 133.969,-127.641L102.844,-88.406C83.594,-63.75 73.969,-43.898 73.969,-28.859C73.969,-15.328 80.582,-8.563 93.813,-8.563C102.832,-8.563 112.531,-11.27 122.906,-16.688C133.281,-22.102 143.352,-28.797 153.125,-36.766C162.906,-44.734 171.102,-52.473 177.719,-59.984L188.531,-72.625C189.133,-73.219 189.883,-73.969 190.781,-74.875C191.688,-75.781 192.441,-76.234 193.047,-76.234C195.148,-76.234 196.203,-75.176 196.203,-73.063C196.203,-72.469 195.898,-71.414 195.297,-69.906C194.703,-68.406 193.648,-66.754 192.141,-64.953L177.719,-48.719C170.801,-40.895 162.305,-33 152.234,-25.031C142.16,-17.063 131.785,-10.52 121.109,-5.406C110.43,-0.301 100.734,2.25 92.016,2.25Z" style="fill:rgb(214,31,53);fill-rule:nonzero;"/>
                                    </g>
                                </g>
                            </g>
                        </g>
                    </g>
                    <g transform="matrix(5.55556,0,0,5.55556,472.222,1561.11)">
                        <g>
                            <g transform="matrix(1,0,0,1,0.931118,516.166)">
                                <g>
                                    <g>
                                        <path d="M111.063,43.297C45.801,43.297 13.172,4.813 13.172,-72.156C13.172,-135.738 30.113,-186.984 64,-225.891C92.445,-259.348 125.078,-276.078 161.891,-276.078C182.379,-276.078 198.582,-270.641 210.5,-259.766C222.426,-248.891 228.391,-233.203 228.391,-212.703C228.391,-180.078 215.844,-147.031 190.75,-113.563C164.813,-78.844 138.457,-61.484 111.688,-61.484C96.207,-61.484 84.805,-66.082 77.484,-75.281C70.172,-84.488 66.516,-95.578 66.516,-108.547C66.516,-116.91 68.188,-126.113 71.531,-136.156C76.133,-148.289 80.945,-154.359 85.969,-154.359C89.727,-154.359 91.609,-152.473 91.609,-148.703C91.609,-146.609 89.727,-141.172 85.969,-132.391C83.031,-126.117 81.563,-119.633 81.563,-112.938C81.563,-104.156 84.383,-97.148 90.031,-91.922C95.688,-86.691 103.113,-84.078 112.313,-84.078C136.988,-84.078 160.207,-99.766 181.969,-131.141C202.457,-160.422 212.703,-189.492 212.703,-218.359C212.703,-233.41 209.039,-245.016 201.719,-253.172C194.406,-261.328 184.473,-265.406 171.922,-265.406C142.223,-265.406 112.523,-244.91 82.828,-203.922C52.285,-160.004 37.852,-111.691 39.531,-58.984C40.363,-35.555 46.738,-15.688 58.656,0.625C70.582,16.938 86.586,25.094 106.672,25.094C163.141,25.094 235.297,-49.988 323.141,-200.156C277.129,-213.957 254.125,-241.145 254.125,-281.719C254.125,-308.914 261.441,-333.492 276.078,-355.453C290.723,-377.41 310.801,-395.922 336.313,-410.984C371.031,-431.055 404.914,-441.094 437.969,-441.094C455.945,-441.094 473.406,-438.895 490.344,-434.5C507.289,-430.113 521.41,-423.211 532.703,-413.797C544.004,-404.391 549.656,-392.156 549.656,-377.094C549.656,-372.07 548.504,-367.258 546.203,-362.656C543.898,-358.063 541.492,-355.766 538.984,-355.766C539.398,-355.766 537.516,-357.125 533.328,-359.844C529.148,-362.563 524.551,-363.922 519.531,-363.922C483.977,-363.922 435.242,-311.004 373.328,-205.172C375.004,-204.754 376.676,-204.547 378.344,-204.547L383.375,-204.547C393.832,-204.547 403.973,-206.426 413.797,-210.188C423.629,-213.957 431.785,-219.188 438.266,-225.875C444.754,-232.57 448,-240.102 448,-248.469C448,-251.813 447.266,-255.258 445.797,-258.813C444.336,-262.375 443.609,-264.57 443.609,-265.406C443.609,-268.758 445.281,-270.438 448.625,-270.438C450.301,-270.438 451.977,-269.805 453.656,-268.547C463.27,-261.441 468.078,-252.66 468.078,-242.203C468.078,-231.742 464.102,-222.539 456.156,-214.594C448.207,-206.645 438.063,-200.473 425.719,-196.078C413.383,-191.68 400.941,-189.484 388.391,-189.484C381.285,-189.484 374.176,-190.113 367.063,-191.375C338.195,-138.25 303.055,-89.305 261.641,-44.547C206.43,14.016 156.238,43.297 111.063,43.297ZM333.813,-215.844C356.813,-253.488 384.836,-289.254 417.891,-323.141C457.617,-364.129 489.617,-384.625 513.891,-384.625C520.16,-384.625 525.598,-383.16 530.203,-380.234C529.785,-388.18 526.02,-395.395 518.906,-401.875C511.789,-408.363 503.316,-413.488 493.484,-417.25C483.66,-421.02 474.352,-423.113 465.563,-423.531C437.957,-424.781 408.68,-418.504 377.734,-404.703C351.379,-392.992 329.727,-375.32 312.781,-351.688C295.844,-328.051 287.375,-300.758 287.375,-269.813C287.375,-239.688 302.852,-221.695 333.813,-215.844Z" style="fill:rgb(214,31,53);fill-rule:nonzero;"/>
                                    </g>
                                </g>
                            </g>
                        </g>
                    </g>
                    <g transform="matrix(5.55556,0,0,5.55556,7061.11,1455.56)">
                        <g>
                            <g transform="matrix(1,0,0,1,0.69665,415.077)">
                                <g>
                                    <g>
                                        <path d="M8.797,0L8.797,-4L18,-7.594C22.531,-9.469 25.66,-11.938 27.391,-15C29.129,-18.063 30,-22.258 30,-27.594L30,-236.406C30,-241.738 29.266,-245.938 27.797,-249C26.328,-252.063 23.063,-254.531 18,-256.406L8.797,-260L8.797,-264L200.406,-264L202.797,-202.406L198.797,-202.406L181.594,-240C179.195,-244.801 176.664,-248.664 174,-251.594C171.332,-254.531 167.332,-256 162,-256L90,-256L90,-140.406L132.797,-140.406C138.129,-140.406 142.195,-141.801 145,-144.594C147.801,-147.395 150.27,-151.195 152.406,-156L160.406,-172L164.406,-172L164.406,-100L160.406,-100L152.406,-116.797C150,-121.598 147.461,-125.398 144.797,-128.203C142.129,-131.004 138.129,-132.406 132.797,-132.406L90,-132.406L90,-8L170.797,-8C176.129,-8 180.258,-9.398 183.188,-12.203C186.125,-15.004 188.531,-18.938 190.406,-24L206.797,-61.594L210.797,-61.594L208.406,0L8.797,0Z" style="fill-rule:nonzero;"/>
                                    </g>
                                </g>
                            </g>
                            <g transform="matrix(1,0,0,1,220.295,415.077)">
                                <g>
                                    <g>
                                        <path d="M92.797,6C77.066,6 62.93,2.469 50.391,-4.594C37.859,-11.664 27.926,-22.598 20.594,-37.391C13.258,-52.191 9.594,-71.195 9.594,-94.406C9.594,-117.863 13.727,-137.258 22,-152.594C30.27,-167.926 41.203,-179.395 54.797,-187C68.398,-194.602 83.203,-198.406 99.203,-198.406C108.535,-198.406 117.469,-197.469 126,-195.594C134.531,-193.727 142.129,-190.93 148.797,-187.203L148.797,-239.203C148.797,-244.797 147.926,-248.926 146.188,-251.594C144.457,-254.258 140.797,-256.129 135.203,-257.203L127.594,-258.797L127.594,-262.797L200.406,-280.406L204.797,-276.797L203.203,-220.797L203.203,-25.203C203.203,-19.867 204.133,-15.535 206,-12.203C207.863,-8.867 211.332,-6.535 216.406,-5.203L220,-4L220,0L151.594,4.406L148,-10C140.801,-5.195 132.598,-1.332 123.391,1.594C114.191,4.531 103.992,6 92.797,6ZM116,-8.797C127.195,-8.797 137.461,-12.129 146.797,-18.797L146.797,-177.594C136.93,-184 126.801,-187.203 116.406,-187.203C103.602,-187.203 92.664,-179.801 83.594,-165C74.531,-150.195 70,-126.93 70,-95.203C70,-63.461 74.266,-41.125 82.797,-28.188C91.328,-15.258 102.395,-8.797 116,-8.797Z" style="fill-rule:nonzero;"/>
                                    </g>
                                </g>
                            </g>
                        </g>
                    </g>
                    <g transform="matrix(5.55556,0,0,5.55556,0,0.00015)">
                        <g transform="matrix(0.120132,0,0,0.120132,246.013,262.455)">
                            <g transform="matrix(780.389,0,0,780.389,6644.46,1896.51)">
                            </g>
                            <text x="3227.97px" y="1896.51px" style="font-family:'Palatino-Roman', 'Palatino';font-size:780.389px;fill:rgb(115,115,115);">M<tspan x="3919.24px 4493.71px 5118.84px 5593.29px 6167.76px " y="1896.51px 1896.51px 1896.51px 1896.51px 1896.51px ">ONROE</tspan></text>
                        </g>
                        <g transform="matrix(0.118264,0,0,0.118264,272.521,614.498)">
                            <g transform="matrix(792.715,0,0,792.715,8369.59,1896.51)">
                            </g>
                            <text x="3227.97px" y="1896.51px" style="font-family:'Palatino-Roman', 'Palatino';font-size:792.715px;fill:rgb(115,115,115);">F<tspan x="3637.13px 4236.53px 4829.35px 5448.5px 5951.02px 6421.98px 6907.75px 7127.26px 7710.81px " y="1896.51px 1896.51px 1896.51px 1896.51px 1896.51px 1896.51px 1896.51px 1896.51px 1896.51px ">OUNDATION</tspan></text>
                        </g>
                    </g>
                </g>
            </g>
        </g>
    </g>
</svg>
